<svg width="108" height="107" viewBox="0 0 108 107" fill="none" xmlns="http://www.w3.org/2000/svg">
    <g filter="url(#filter0_d_5086_26366)">
        <circle cx="50.1949" cy="48.5272" r="38.6712" transform="rotate(15.1669 50.1949 48.5272)" fill="white" />
        <path
            d="M32.9816 38.8833C32.6493 38.7932 32.3573 38.7736 32.0855 38.7891L38.1184 33.4232L33.715 32.2295L25.8815 39.2478L25.2833 39.7546C24.8837 40.0774 24.4315 40.594 23.9368 41.322C23.4422 42.0501 23.086 42.8157 22.872 43.605C22.3428 45.5574 22.6023 47.3967 23.6506 49.1227C24.6989 50.8488 26.3189 52.0014 28.4929 52.5907C30.6669 53.1801 32.6472 53.0034 34.4238 52.0431C36.2003 51.0827 37.367 49.6301 37.8963 47.6777C38.3917 45.8498 38.1386 44.042 37.1468 42.2718C36.1412 40.4979 34.754 39.3638 32.9816 38.8833ZM33.7836 46.5628C33.5322 47.4906 32.9896 48.1759 32.1837 48.6264C31.3778 49.0769 30.4783 49.16 29.4951 48.8935C28.512 48.627 27.7776 48.1009 27.3095 47.3051C26.8415 46.5093 26.7332 45.6476 26.9847 44.7198C27.2324 43.8059 27.7611 43.1168 28.5707 42.6525C29.3766 42.202 30.2799 42.105 31.2631 42.3715C32.2462 42.638 32.9769 43.178 33.4449 43.9737C33.9093 44.7834 34.0314 45.6489 33.7836 46.5628ZM46.0848 46.2406C46.6479 44.1636 47.4987 42.6699 48.6512 41.7634C49.8037 40.8569 50.9546 40.5594 52.1177 40.8747C53.267 41.1863 54.1101 42.0243 54.647 43.3887C55.1701 44.7494 55.1639 46.472 54.6009 48.5491C54.0378 50.6262 53.1731 52.1161 52.0345 53.0264C50.882 53.9329 49.7311 54.2303 48.5818 53.9188C47.4186 53.6035 46.5755 52.7655 46.0387 51.401C45.5018 50.0366 45.5218 48.3177 46.0848 46.2406ZM58.852 49.7015C59.6928 46.5997 59.5376 43.882 58.404 41.5382C57.2566 39.1907 55.5077 37.691 53.1537 37.0529C50.7858 36.411 48.519 36.8222 46.3431 38.2688C44.1672 39.7155 42.6607 41.9827 41.8199 45.0845C40.9791 48.1863 41.1305 50.9179 42.2779 53.2654C43.4216 55.6267 45.1742 57.1126 47.5421 57.7545C49.8961 58.3926 52.1592 57.9952 54.3388 56.5348C56.5009 55.0844 58.0111 52.8032 58.852 49.7015ZM63.4039 49.0401C63.5194 48.6143 63.7501 48.2978 64.1197 48.0859C64.4761 47.8815 64.8686 47.8318 65.2944 47.9472C65.7202 48.0626 66.0339 48.3037 66.2487 48.663C66.4503 49.0298 66.5 49.4223 66.3845 49.8481C66.2691 50.2739 66.028 50.5876 65.6716 50.792C65.302 51.004 64.9123 51.0432 64.4865 50.9278C64.0607 50.8124 63.7442 50.5817 63.5426 50.2149C63.3278 49.8556 63.2885 49.4659 63.4039 49.0401ZM60.1301 60.706L62.7888 61.4266L76.1831 49.0705L73.5244 48.3498L60.1301 60.706ZM68.5135 50.4252C68.7641 49.5009 68.623 48.5819 68.1082 47.6843C67.5935 46.7866 66.8376 46.2027 65.8406 45.9324C64.8436 45.6622 63.8963 45.7844 62.9986 46.2992C62.101 46.814 61.5255 47.5387 61.2749 48.463C61.0244 49.3873 61.1551 50.3035 61.6698 51.2011C62.1846 52.0988 62.9405 52.6827 63.9375 52.953C64.9345 53.2232 65.8818 53.101 66.7795 52.5862C67.6771 52.0714 68.263 51.3495 68.5135 50.4252ZM72.9065 60.7467C72.7911 61.1725 72.5499 61.4862 72.1935 61.6906C71.8239 61.9025 71.4342 61.9418 71.0084 61.8264C70.5826 61.711 70.2661 61.4802 70.0645 61.1134C69.8497 60.7542 69.8104 60.3645 69.9259 59.9387C70.0413 59.5129 70.272 59.1964 70.6416 58.9844C70.9981 58.78 71.3906 58.7304 71.8164 58.8458C72.2422 58.9612 72.5559 59.2023 72.7706 59.5616C72.9722 59.9284 73.0219 60.3209 72.9065 60.7467ZM67.7969 59.3616C67.5463 60.2859 67.677 61.2021 68.1918 62.0997C68.7066 62.9973 69.4624 63.5813 70.4594 63.8516C71.4564 64.1218 72.4038 63.9996 73.3014 63.4848C74.199 62.97 74.7849 62.2481 75.0355 61.3238C75.2832 60.4099 75.1421 59.4909 74.6274 58.5933C74.1126 57.6956 73.3595 57.1013 72.3625 56.831C71.3655 56.5608 70.4154 56.6934 69.5177 57.2082C68.6201 57.7229 68.0446 58.4477 67.7969 59.3616Z"
            fill="#F89358" />
    </g>
    <defs>
        <filter id="filter0_d_5086_26366" x="-8.17568" y="-8.70873" width="123.846" height="123.846"
            filterUnits="userSpaceOnUse" color-interpolation-filters="sRGB">
            <feFlood flood-opacity="0" result="BackgroundImageFix" />
            <feColorMatrix in="SourceAlpha" type="matrix" values="0 0 0 0 0 0 0 0 0 0 0 0 0 0 0 0 0 0 127 0"
                result="hardAlpha" />
            <feOffset dx="3.67282" dy="4.89709" />
            <feGaussianBlur stdDeviation="7.34564" />
            <feColorMatrix type="matrix" values="0 0 0 0 0.211765 0 0 0 0 0.227451 0 0 0 0 0.270588 0 0 0 0.26 0" />
            <feBlend mode="normal" in2="BackgroundImageFix" result="effect1_dropShadow_5086_26366" />
            <feBlend mode="normal" in="SourceGraphic" in2="effect1_dropShadow_5086_26366" result="shape" />
        </filter>
    </defs>
</svg>