<svg width="56" height="56" viewBox="0 0 56 56" fill="none" xmlns="http://www.w3.org/2000/svg">
<g filter="url(#filter0_d_5086_26355)">
<circle cx="26.2742" cy="25.5893" r="20.1251" transform="rotate(-14.7106 26.2742 25.5893)" fill="white"/>
<path d="M19.6881 29.196L17.9589 22.6099L15.3736 23.2886L12.5115 30.7637L13.0935 32.9807L17.9754 31.699L18.4608 33.5478L20.6778 32.9657L20.1924 31.117L21.3768 30.806L20.8724 28.8851L19.6881 29.196ZM17.471 29.7781L14.6618 30.5156L16.4226 25.7845L17.471 29.7781ZM24.0678 26.5409C23.7834 25.4576 23.7801 24.563 24.0652 23.8552C24.3502 23.1474 24.7925 22.7148 25.3991 22.5555C25.9985 22.3981 26.5962 22.5577 27.1922 23.0342C27.7809 23.5126 28.2247 24.2916 28.5091 25.3748C28.7935 26.4581 28.7896 27.3546 28.5118 28.0605C28.2267 28.7683 27.7845 29.2009 27.1851 29.3583C26.5785 29.5176 25.9808 29.358 25.3848 28.8815C24.7888 28.4049 24.3522 27.6241 24.0678 26.5409ZM30.7262 24.7928C30.3015 23.1751 29.5269 21.989 28.4078 21.2252C27.2814 20.4634 26.1035 20.24 24.8758 20.5623C23.6409 20.8865 22.7246 21.6597 22.1177 22.8766C21.5109 24.0935 21.4188 25.5072 21.8435 27.1248C22.2683 28.7425 23.0447 29.9358 24.1711 30.6977C25.2993 31.4668 26.4754 31.6829 27.7103 31.3587C28.938 31.0364 29.8562 30.2704 30.4611 29.0463C31.0608 27.8313 31.1509 26.4104 30.7262 24.7928ZM32.6088 23.3143C32.5505 23.0922 32.5726 22.8895 32.6844 22.6981C32.7923 22.5134 32.9565 22.3893 33.1786 22.331C33.4006 22.2727 33.6047 22.3001 33.7947 22.4066C33.9808 22.5198 34.105 22.6841 34.1633 22.9061C34.2216 23.1282 34.1941 23.3323 34.0863 23.5169C33.9744 23.7084 33.8087 23.8271 33.5867 23.8854C33.3646 23.9437 33.162 23.9217 32.9759 23.8084C32.7859 23.702 32.6671 23.5363 32.6088 23.3143ZM34.1558 29.4272L35.5424 29.0631L38.3833 20.015L36.9967 20.379L34.1558 29.4272ZM35.2736 22.6146C35.147 22.1326 34.8451 21.7545 34.3801 21.4829C33.9151 21.2113 33.4227 21.1437 32.9027 21.2802C32.3827 21.4167 31.987 21.7175 31.7153 22.1825C31.4437 22.6475 31.3719 23.1237 31.4985 23.6058C31.625 24.0878 31.9215 24.4673 32.3865 24.7389C32.8515 25.0106 33.344 25.0781 33.864 24.9416C34.3839 24.8051 34.7797 24.5043 35.0513 24.0393C35.3229 23.5743 35.4002 23.0967 35.2736 22.6146ZM39.9317 26.1333C39.99 26.3554 39.9625 26.5595 39.8547 26.7441C39.7428 26.9356 39.5772 27.0543 39.3551 27.1126C39.133 27.1709 38.9304 27.1489 38.7443 27.0356C38.5543 26.9292 38.4355 26.7635 38.3772 26.5415C38.3189 26.3194 38.341 26.1167 38.4528 25.9253C38.5607 25.7406 38.7249 25.6165 38.947 25.5582C39.1691 25.4999 39.3731 25.5273 39.5632 25.6338C39.7492 25.747 39.8734 25.9113 39.9317 26.1333ZM37.2669 26.833C37.3935 27.315 37.69 27.6945 38.155 27.9662C38.62 28.2378 39.1124 28.3053 39.6324 28.1688C40.1524 28.0323 40.5481 27.7315 40.8197 27.2665C41.0914 26.8015 41.1686 26.3239 41.042 25.8418C40.9169 25.3652 40.615 24.9871 40.15 24.7155C39.685 24.4439 39.1911 24.3709 38.6711 24.5074C38.1512 24.6439 37.7568 24.9501 37.4852 25.4151C37.2136 25.8801 37.1418 26.3563 37.2669 26.833Z" fill="#00C65E"/>
</g>
<defs>
<filter id="filter0_d_5086_26355" x="-4.03595" y="-4.03847" width="64.2258" height="64.2258" filterUnits="userSpaceOnUse" color-interpolation-filters="sRGB">
<feFlood flood-opacity="0" result="BackgroundImageFix"/>
<feColorMatrix in="SourceAlpha" type="matrix" values="0 0 0 0 0 0 0 0 0 0 0 0 0 0 0 0 0 0 127 0" result="hardAlpha"/>
<feOffset dx="1.9114" dy="2.54853"/>
<feGaussianBlur stdDeviation="3.8228"/>
<feColorMatrix type="matrix" values="0 0 0 0 0.211765 0 0 0 0 0.227451 0 0 0 0 0.270588 0 0 0 0.26 0"/>
<feBlend mode="normal" in2="BackgroundImageFix" result="effect1_dropShadow_5086_26355"/>
<feBlend mode="normal" in="SourceGraphic" in2="effect1_dropShadow_5086_26355" result="shape"/>
</filter>
</defs>
</svg>
