<svg width="52" height="52" viewBox="0 0 52 52" fill="none" xmlns="http://www.w3.org/2000/svg">
<g filter="url(#filter0_d_5086_26369)">
<circle cx="24.0081" cy="23.8002" r="18.6824" transform="rotate(5.91665 24.0081 23.8002)" fill="white"/>
<path d="M16.3157 22.1235L16.4608 22.0688C16.5685 22.0382 16.6935 21.9745 16.8428 21.8785C16.9921 21.7825 17.1367 21.665 17.291 21.5208C17.4446 21.3834 17.5833 21.1887 17.7055 20.9505C17.8277 20.7123 17.9115 20.4423 17.9415 20.1527C18.0222 19.3737 17.7868 18.6873 17.2344 18.1005C16.682 17.5136 15.9032 17.1612 14.9104 17.0583C14.4761 17.0133 14.0567 17.0255 13.6523 17.0951C13.241 17.164 12.9118 17.2483 12.6576 17.3474C12.4035 17.4465 12.1671 17.5753 11.9424 17.7262C11.717 17.8841 11.5739 17.9877 11.5116 18.0509C11.4493 18.1141 11.4029 18.1581 11.3718 18.1897L12.5089 19.5897L12.7462 19.3844C12.899 19.2539 13.1354 19.1251 13.4689 18.9994C13.8018 18.8806 14.1482 18.8328 14.5067 18.87C14.9203 18.9129 15.2398 19.0575 15.4597 19.2893C15.6719 19.5273 15.7682 19.809 15.7339 20.14C15.6967 20.4985 15.5426 20.7751 15.2785 20.9708C15.0143 21.1664 14.6788 21.2431 14.2652 21.2002L13.2793 21.0981L13.0964 22.863L14.1581 22.973C14.6614 23.0252 15.0415 23.19 15.3068 23.4544C15.5713 23.7257 15.6847 24.044 15.6468 24.4094C15.6082 24.7817 15.4251 25.0694 15.1113 25.2737C14.7967 25.485 14.364 25.5587 13.8194 25.5022C13.5436 25.4736 13.2852 25.412 13.038 25.3097C12.79 25.2144 12.5918 25.1102 12.4363 24.9965C12.2808 24.8829 12.1399 24.7637 12.008 24.6246C11.8692 24.4848 11.7881 24.3928 11.7517 24.3403C11.7154 24.2877 11.6852 24.2428 11.6743 24.2138L10.2602 25.4191L10.3886 25.5926C10.4661 25.7191 10.6042 25.8658 10.7953 26.0389C10.9864 26.212 11.2127 26.3818 11.4727 26.5621C11.7328 26.7423 12.0777 26.9105 12.5006 27.0658C12.9235 27.2211 13.3735 27.3165 13.8423 27.3651C14.9454 27.4794 15.8579 27.2813 16.5942 26.7653C17.3299 26.2562 17.7398 25.5949 17.8241 24.7814C17.8613 24.4229 17.8259 24.0917 17.7333 23.7755C17.6337 23.4586 17.5132 23.2092 17.3794 23.0211C17.2449 22.84 17.0814 22.6697 16.895 22.518C16.7018 22.3656 16.5725 22.2686 16.4933 22.2255C16.4141 22.1825 16.3549 22.1485 16.3157 22.1235ZM21.8753 22.9854C21.9825 21.9512 22.2722 21.1729 22.7513 20.6512C23.2305 20.1294 23.7562 19.8982 24.3353 19.9582C24.9075 20.0175 25.3746 20.3516 25.7365 20.9606C26.0916 21.5687 26.2224 22.3906 26.1153 23.4248C26.0081 24.4589 25.7115 25.2365 25.2393 25.7589C24.7601 26.2807 24.2345 26.5119 23.6622 26.4526C23.0831 26.3926 22.616 26.0585 22.2541 25.4496C21.8921 24.8406 21.7682 24.0195 21.8753 22.9854ZM28.2318 23.6441C28.3918 22.0998 28.1068 20.816 27.3843 19.7864C26.6548 18.7562 25.7045 18.1769 24.5325 18.0554C23.3536 17.9333 22.3046 18.3054 21.3794 19.1641C20.4542 20.0229 19.912 21.221 19.7519 22.7653C19.5919 24.3096 19.8762 25.6003 20.6056 26.6306C21.3343 27.6677 22.2854 28.2401 23.4643 28.3623C24.6363 28.4837 25.6846 28.1185 26.6105 27.2529C27.5288 26.3934 28.0718 25.1884 28.2318 23.6441ZM30.3509 22.9753C30.3729 22.7633 30.4583 22.5944 30.6181 22.4647C30.7722 22.3395 30.9555 22.2853 31.1675 22.3073C31.3795 22.3293 31.5478 22.4199 31.6781 22.5745C31.8027 22.7337 31.8569 22.9171 31.8349 23.129C31.8129 23.341 31.7223 23.5093 31.5683 23.6345C31.4085 23.7643 31.2257 23.8133 31.0137 23.7913C30.8017 23.7693 30.6329 23.6839 30.5083 23.5246C30.378 23.37 30.329 23.1873 30.3509 22.9753ZM29.6959 28.7921L31.0196 28.9292L36.4467 21.9973L35.123 21.8601L29.6959 28.7921ZM32.8949 23.2389C32.9426 22.7787 32.804 22.3515 32.4888 21.9634C32.1736 21.5754 31.7678 21.3556 31.2715 21.3042C30.7751 21.2528 30.3329 21.3846 29.9448 21.6998C29.5568 22.015 29.3386 22.4052 29.291 22.8654C29.2433 23.3256 29.3767 23.7523 29.6919 24.1403C30.0071 24.5284 30.4128 24.7481 30.9092 24.7996C31.4056 24.851 31.8478 24.7191 32.2359 24.404C32.6239 24.0888 32.8472 23.6991 32.8949 23.2389ZM35.7911 27.8193C35.7691 28.0313 35.6785 28.1996 35.5245 28.3247C35.3647 28.4545 35.1819 28.5035 34.9699 28.4815C34.7579 28.4596 34.5891 28.3741 34.4645 28.2149C34.3342 28.0603 34.2852 27.8775 34.3071 27.6655C34.3291 27.4535 34.4145 27.2847 34.5743 27.1549C34.7284 27.0298 34.9117 26.9756 35.1237 26.9976C35.3357 27.0195 35.504 27.1101 35.6343 27.2647C35.7589 27.424 35.8131 27.6073 35.7911 27.8193ZM33.2472 27.5557C33.1995 28.0158 33.3329 28.4425 33.6481 28.8306C33.9633 29.2186 34.369 29.4384 34.8654 29.4898C35.3618 29.5413 35.804 29.4094 36.1921 29.0942C36.5801 28.7791 36.8034 28.3893 36.8511 27.9291C36.8983 27.4741 36.7596 27.0469 36.4444 26.6588C36.1293 26.2708 35.724 26.0459 35.2277 25.9944C34.7313 25.943 34.2885 26.08 33.9005 26.3952C33.5124 26.7104 33.2943 27.1006 33.2472 27.5557Z" fill="#00C65E"/>
</g>
<defs>
<filter id="filter0_d_5086_26369" x="-1.80651" y="-1.44015" width="55.0304" height="55.0309" filterUnits="userSpaceOnUse" color-interpolation-filters="sRGB">
<feFlood flood-opacity="0" result="BackgroundImageFix"/>
<feColorMatrix in="SourceAlpha" type="matrix" values="0 0 0 0 0 0 0 0 0 0 0 0 0 0 0 0 0 0 127 0" result="hardAlpha"/>
<feOffset dx="1.77437" dy="2.36583"/>
<feGaussianBlur stdDeviation="3.54874"/>
<feColorMatrix type="matrix" values="0 0 0 0 0.211765 0 0 0 0 0.227451 0 0 0 0 0.270588 0 0 0 0.26 0"/>
<feBlend mode="normal" in2="BackgroundImageFix" result="effect1_dropShadow_5086_26369"/>
<feBlend mode="normal" in="SourceGraphic" in2="effect1_dropShadow_5086_26369" result="shape"/>
</filter>
</defs>
</svg>
