<svg width="150" height="63" viewBox="0 0 150 63" fill="none" xmlns="http://www.w3.org/2000/svg">
<path d="M0.5 18.2429H15.1677V51.7099H21.4728C35.6206 51.7099 42.6918 44.836 42.6863 31.088C42.6863 17.621 36.1212 10.8899 22.991 10.8949H20.3423V0L22.2361 0C33.53 0 42.3046 2.71016 48.56 8.13049C54.8153 13.5508 57.9402 21.0974 57.9347 30.7702C57.9347 41.0688 54.6964 48.953 48.2198 54.4226C41.7432 59.8922 32.3685 62.6442 20.0957 62.6787H0.5V18.2429Z" fill="white"/>
<path d="M15.176 0H0.5V13.0753H15.176V0Z" fill="white"/>
<path d="M71.9649 26.3894H66.9359V44.6172H71.9649V26.3894ZM72.328 21.197C72.328 20.3618 72.0557 19.6719 71.5292 19.1636C70.9845 18.6552 70.2583 18.4011 69.3505 18.4011C68.5154 18.4011 67.8436 18.6552 67.3353 19.1636C66.827 19.6719 66.5728 20.3618 66.5728 21.197C66.5728 22.0321 66.8088 22.7038 67.3171 23.2122C67.8255 23.7205 68.4972 23.9747 69.3505 23.9747C70.2583 23.9747 70.9845 23.7205 71.5292 23.2122C72.0557 22.7038 72.328 22.0321 72.328 21.197ZM82.2044 18.5826H77.1754V44.6172H82.2044V18.5826ZM91.4999 45.7247C90.9008 47.1045 89.8478 47.7762 88.3409 47.7762C87.5965 47.7762 86.9792 47.6673 86.489 47.4131V51.8611L86.8521 51.9882C87.1063 52.0971 87.4876 52.1879 88.0322 52.2787C88.5587 52.3876 89.1034 52.4239 89.6481 52.4239C92.6981 52.4239 95.0401 50.1908 96.7104 45.7247L103.954 26.3894H98.762L94.4773 38.4807L90.2109 26.3894H85.0003L92.0627 44.4356L91.4999 45.7247ZM103.736 42.2025C103.736 42.9469 104.027 43.6005 104.608 44.1452C105.189 44.708 105.879 44.9803 106.714 44.9803C107.531 44.9803 108.239 44.708 108.82 44.1452C109.401 43.6005 109.691 42.9469 109.691 42.2025C109.691 41.4582 109.401 40.8046 108.82 40.2418C108.239 39.6971 107.531 39.4066 106.714 39.4066C105.879 39.4066 105.189 39.6971 104.608 40.2418C104.027 40.8046 103.736 41.4582 103.736 42.2025ZM124.561 26.2078H123.816C122.818 26.2078 121.874 26.4438 120.966 26.8795C120.058 27.3334 119.477 27.6965 119.205 27.9689C118.951 28.2412 118.733 28.4591 118.587 28.6224V26.3894H113.577V44.6172H118.587V35.8845C118.587 34.3232 118.987 33.1249 119.749 32.2898C120.512 31.4547 121.565 31.0371 122.872 31.0371C123.616 31.0552 124.179 31.1279 124.542 31.255L124.561 26.2078ZM139.629 44.6172H144.64V26.3894H139.629V36.0661C139.629 37.4459 139.284 38.4989 138.613 39.2251C137.941 39.9695 137.033 40.3326 135.908 40.3326C134.891 40.3326 134.038 40.0058 133.366 39.334C132.694 38.6804 132.367 37.8271 132.367 36.8104V26.3894H127.356V37.3006C127.356 39.6245 128.01 41.4945 129.317 42.8924C130.624 44.2904 132.331 44.9803 134.419 44.9803C135.399 44.9803 136.343 44.7806 137.251 44.3812C138.159 43.9818 138.74 43.655 139.012 43.4008C139.266 43.1466 139.484 42.9469 139.629 42.7654V44.6172Z" fill="white"/>
</svg>
