<svg width="200" height="200" viewBox="0 0 200 200" fill="none" xmlns="http://www.w3.org/2000/svg">
<g clip-path="url(#clip0_1919_59991)">
<path opacity="0.7" d="M108.395 192.496C125.77 204.858 150.787 196.604 157.396 176.33L192.072 69.9447C199.886 45.9752 176.824 23.9196 152.381 31.9839L26.5291 73.5049C2.08581 81.5692 -3.32325 113.018 17.2194 127.632L108.395 192.496Z" fill="#FAEAD9"/>
<path d="M43.3042 148.262L56 145.159L43.1147 142.104L39.8934 130L36.8616 142.127L24 145.278L36.7195 148.309L40.0118 161.053L43.3042 148.262Z" fill="#FFB762"/>
<path d="M67.1957 71.286L146.147 72.05C153.25 72.1188 160.035 75.0063 165.009 80.0775C169.983 85.1486 172.738 91.9879 172.669 99.0909L172.661 99.9384C172.601 106.132 170.083 112.049 165.661 116.386C161.239 120.723 155.275 123.126 149.081 123.066L63.2746 122.236C57.0808 122.176 51.1644 119.658 46.8271 115.236C42.4898 110.814 40.0868 104.85 40.1467 98.656L40.1549 97.8085C40.2236 90.7056 43.1112 83.9209 48.1823 78.9469C53.2535 73.973 60.0928 71.2173 67.1957 71.286Z" fill="#08A636"/>
<path d="M146.749 72.1123L143.792 72.0837C141.491 54.9588 125.911 41.6231 106.907 41.4392C87.9042 41.2553 72.1257 54.2875 69.4365 71.3642L66.1782 71.3327C59.8433 71.2111 53.7193 73.61 49.1523 78.0019C44.5853 82.3939 41.9492 88.4196 41.8232 94.7544C41.6966 107.844 52.4184 115.181 65.7527 115.31L146.324 116.089C159.639 116.275 170.519 109.185 170.646 96.0011C170.638 89.6665 168.117 83.5938 163.637 79.1154C159.157 74.6369 153.084 72.1184 146.749 72.1123Z" fill="#00C65E"/>
<path d="M103.088 72.1974L79.2817 71.967C79.4004 59.7062 90.1565 49.8651 103.303 49.9923L103.088 72.1974Z" fill="white"/>
<path d="M101.872 71.2832L84.7142 71.1171C84.7997 62.2841 92.5533 55.1828 102.027 55.2744L101.872 71.2832Z" fill="#CCE7D7"/>
<path d="M109.811 72.2624L133.636 72.493C133.754 60.2322 123.191 50.1848 110.026 50.0574L109.811 72.2624Z" fill="white"/>
<path d="M135.439 139.171C144.042 139.254 151.081 132.466 151.163 124.01C151.245 115.553 144.338 108.63 135.736 108.547C127.134 108.464 120.094 115.252 120.012 123.708C119.93 132.165 126.837 139.088 135.439 139.171Z" fill="white"/>
<path d="M135.553 127.495C137.591 127.514 139.26 125.903 139.279 123.895C139.299 121.888 137.662 120.244 135.623 120.225C133.584 120.205 131.916 121.816 131.896 123.824C131.877 125.831 133.514 127.475 135.553 127.495Z" fill="white"/>
<path d="M135.439 139.171C142.471 139.239 148.225 133.687 148.292 126.77C148.359 119.853 142.713 114.19 135.682 114.122C128.65 114.054 122.896 119.606 122.829 126.524C122.762 133.441 128.408 139.103 135.439 139.171Z" fill="#FFB762"/>
<path d="M135.532 129.623C137.206 129.639 138.577 128.32 138.593 126.677C138.609 125.033 137.264 123.688 135.589 123.671C133.915 123.655 132.544 124.974 132.528 126.618C132.512 128.261 133.857 129.607 135.532 129.623Z" fill="white"/>
<path d="M76.1693 138.597C84.7715 138.681 91.8112 131.893 91.8931 123.436C91.9749 114.98 85.0678 108.057 76.4657 107.974C67.8635 107.89 60.8238 114.678 60.742 123.135C60.6601 131.591 67.5672 138.514 76.1693 138.597Z" fill="white"/>
<path d="M76.2822 126.921C78.3209 126.941 79.9894 125.329 80.0088 123.322C80.0282 121.314 78.3913 119.671 76.3526 119.651C74.3138 119.631 72.6454 121.243 72.626 123.25C72.6065 125.258 74.2435 126.901 76.2822 126.921Z" fill="white"/>
<path d="M76.1694 138.598C83.2009 138.666 88.9553 133.113 89.0223 126.196C89.0892 119.279 83.4433 113.617 76.4118 113.549C69.3803 113.481 63.6259 119.033 63.559 125.95C63.492 132.867 69.1379 138.53 76.1694 138.598Z" fill="#FFB762"/>
<path d="M76.2618 129.049C77.9364 129.066 79.3069 127.746 79.3228 126.103C79.3387 124.46 77.994 123.114 76.3194 123.098C74.6447 123.082 73.2742 124.401 73.2583 126.044C73.2424 127.688 74.5871 129.033 76.2618 129.049Z" fill="white"/>
<path d="M92.3074 80.5899L92.2808 83.3396L103.129 83.4446L103.156 80.6948L92.3074 80.5899Z" fill="white"/>
<path d="M122.856 80.8648L122.83 83.6145L133.678 83.7195L133.704 80.9697L122.856 80.8648Z" fill="white"/>
<path d="M111.063 71.372L128.22 71.538C128.306 62.705 120.691 55.455 111.218 55.3633L111.063 71.372Z" fill="#CCE7D7"/>
<path d="M51.5964 86.2868C53.1736 83.6789 53.5503 81.0192 52.4377 80.3463C51.325 79.6734 49.1445 81.2421 47.5673 83.8501C45.99 86.4581 45.6134 89.1177 46.726 89.7906C47.8386 90.4635 50.0192 88.8948 51.5964 86.2868Z" fill="#FFB762"/>
<path d="M166.601 109.24L176.719 106.87L166.497 104.341L164.029 94.6926L161.525 104.312L151.274 106.718L161.364 109.227L163.884 119.385L166.601 109.24Z" fill="#FFB762"/>
<path d="M182.531 48.7973L198.018 45.0211L182.357 41.1369L178.675 26.113L174.819 41.1418L159.113 44.9653L174.605 48.7756L178.452 64.6272L182.531 48.7973Z" fill="#F89358"/>
</g>
<defs>
<clipPath id="clip0_1919_59991">
<rect width="200" height="200" fill="white"/>
</clipPath>
</defs>
</svg>
