<svg width="200" height="200" viewBox="0 0 200 200" fill="none" xmlns="http://www.w3.org/2000/svg">
<g clip-path="url(#clip0_1919_59034)">
<path opacity="0.7" d="M108.395 192.496C125.77 204.858 150.787 196.604 157.396 176.33L192.072 69.9447C199.886 45.9752 176.824 23.9196 152.381 31.9839L26.5291 73.5049C2.08581 81.5692 -3.32325 113.018 17.2194 127.632L108.395 192.496Z" fill="#CCEFDB"/>
<path d="M78.011 34.6592H54.29V69.3003H78.011V34.6592Z" fill="#F89358"/>
<path d="M81.2468 27.3582H54.9172C51.5219 27.3582 48.7695 30.1105 48.7695 33.5058V38.6827C48.7695 42.078 51.5219 44.8304 54.9172 44.8304H81.2468C84.642 44.8304 87.3944 42.078 87.3944 38.6827V33.5058C87.3944 30.1105 84.642 27.3582 81.2468 27.3582Z" fill="#F89358"/>
<path d="M125.15 54.1135H54.3104C44.7501 54.1135 37 61.8637 37 71.424V125.357C37 134.918 44.7501 142.668 54.3104 142.668H125.15C134.71 142.668 142.46 134.918 142.46 125.357V71.424C142.46 61.8637 134.71 54.1135 125.15 54.1135Z" fill="#F89358"/>
<path d="M126.221 54.1135H58.8402C49.8718 54.1135 42.6016 61.3838 42.6016 70.3522V120.039C42.6016 129.007 49.8718 136.277 58.8402 136.277H126.221C135.19 136.277 142.46 129.007 142.46 120.039V70.3522C142.46 61.3838 135.19 54.1135 126.221 54.1135Z" fill="#FFB762"/>
<path d="M111.217 81.656V61.1909H127.739C129.884 61.1909 131.941 62.0431 133.458 63.5601C134.975 65.0771 135.828 67.1346 135.828 69.2799V81.6763L111.217 81.656Z" fill="white"/>
<path d="M81.8533 34.6592H58.1323V69.3003H81.8533V34.6592Z" fill="#FFB762"/>
<path d="M81.8332 27.3582H58.1527C55.0702 27.3582 52.5713 29.857 52.5713 32.9396V37.7323C52.5713 40.8148 55.0702 43.3137 58.1527 43.3137H81.8332C84.9157 43.3137 87.4146 40.8148 87.4146 37.7323V32.9396C87.4146 29.857 84.9157 27.3582 81.8332 27.3582Z" fill="#FFB762"/>
<path d="M136.564 180.485C156.757 180.485 173.127 164.115 173.127 143.922C173.127 123.728 156.757 107.358 136.564 107.358C116.37 107.358 100 123.728 100 143.922C100 164.115 116.37 180.485 136.564 180.485Z" fill="#00C65E"/>
<path d="M136.564 171.715C151.913 171.715 164.357 159.271 164.357 143.921C164.357 128.572 151.913 116.128 136.564 116.128C121.214 116.128 108.771 128.572 108.771 143.921C108.771 159.271 121.214 171.715 136.564 171.715Z" fill="#CCE7D7"/>
<path d="M136.564 156.252C143.057 156.252 148.322 150.988 148.322 144.495C148.322 138.001 143.057 132.737 136.564 132.737C130.07 132.737 124.806 138.001 124.806 144.495C124.806 150.988 130.07 156.252 136.564 156.252Z" fill="white"/>
<path d="M136.564 152.931C141.539 152.931 145.573 148.897 145.573 143.921C145.573 138.946 141.539 134.912 136.564 134.912C131.588 134.912 127.554 138.946 127.554 143.921C127.554 148.897 131.588 152.931 136.564 152.931Z" fill="#00C65E"/>
<path d="M137.758 143.01H135.345V173.91H137.758V143.01Z" fill="#00C65E"/>
<path d="M137.758 113.594H135.345V144.494H137.758V113.594Z" fill="#00C65E"/>
<path d="M137.042 142.557V144.971H167.941V142.557H137.042Z" fill="#00C65E"/>
<path d="M107.624 142.534V144.947H138.523V142.534H107.624Z" fill="#00C65E"/>
<path d="M137.021 143.249L135.321 144.963L157.262 166.72L158.962 165.007L137.021 143.249Z" fill="#00C65E"/>
<path d="M116.133 122.532L114.434 124.246L136.374 146.004L138.074 144.29L116.133 122.532Z" fill="#00C65E"/>
<path d="M136.167 143.433L137.881 145.133L159.639 123.192L157.925 121.492L136.167 143.433Z" fill="#00C65E"/>
<path d="M115.473 164.315L117.187 166.015L138.944 144.074L137.23 142.375L115.473 164.315Z" fill="#00C65E"/>
<path d="M136.564 149.346C139.56 149.346 141.989 146.917 141.989 143.921C141.989 140.925 139.56 138.496 136.564 138.496C133.568 138.496 131.139 140.925 131.139 143.921C131.139 146.917 133.568 149.346 136.564 149.346Z" fill="white"/>
<path d="M78.7317 172.83L92.7261 169.572L78.7317 166.253L75.3731 153.358L71.9944 166.253L58 169.572L71.8745 172.83L75.453 186.405L78.7317 172.83Z" fill="#00C65E"/>
<path d="M56.1504 108.798L64.3271 106.799L56.0304 104.8L54.0312 97.2227L52.032 104.8L43.7354 106.799L51.9121 108.798L53.9113 116.795L56.1504 108.798Z" fill="white"/>
</g>
<defs>
<clipPath id="clip0_1919_59034">
<rect width="200" height="200" fill="white"/>
</clipPath>
</defs>
</svg>
