<svg width="200" height="200" viewBox="0 0 200 200" fill="none" xmlns="http://www.w3.org/2000/svg">
<g clip-path="url(#clip0_1913_58788)">
<path opacity="0.7" d="M108.395 192.496C125.77 204.858 150.787 196.604 157.396 176.33L192.072 69.9447C199.886 45.9752 176.824 23.9196 152.381 31.9839L26.5291 73.5049C2.08581 81.5692 -3.32325 113.018 17.2194 127.632L108.395 192.496Z" fill="#CCEFDB"/>
<path d="M160.893 46.1091H48.6238C42.5979 46.1091 37.7129 50.9941 37.7129 57.02V132.705C37.7129 138.73 42.5979 143.615 48.6238 143.615H160.893C166.919 143.615 171.804 138.73 171.804 132.705V57.02C171.804 50.9941 166.919 46.1091 160.893 46.1091Z" fill="white"/>
<path d="M160.908 145.188H48.6237C45.3157 145.188 42.143 143.875 39.8024 141.537C37.4618 139.199 36.1448 136.028 36.1406 132.72V57.0202C36.1653 53.7171 37.4884 50.5563 39.8241 48.2206C42.1598 45.8849 45.3206 44.5618 48.6237 44.5371H160.908C164.212 44.5618 167.372 45.8849 169.708 48.2206C172.044 50.5563 173.367 53.7171 173.392 57.0202V132.72C173.387 136.028 172.07 139.199 169.73 141.537C167.389 143.875 164.216 145.188 160.908 145.188ZM48.6237 47.7129C46.1545 47.7375 43.7934 48.7293 42.0474 50.4753C40.3013 52.2214 39.3095 54.5825 39.285 57.0516V132.72C39.3136 135.187 40.3072 137.544 42.0528 139.287C43.7985 141.029 46.1572 142.019 48.6237 142.043H160.908C163.375 142.019 165.734 141.029 167.479 139.287C169.225 137.544 170.219 135.187 170.247 132.72V57.0202C170.223 54.551 169.231 52.1899 167.485 50.4439C165.739 48.6978 163.378 47.706 160.908 47.6815L48.6237 47.7129Z" fill="#00C65E"/>
<path d="M27.6197 143.413H180.404C180.562 143.413 180.714 143.476 180.826 143.588C180.938 143.7 181.001 143.852 181.001 144.011V149.01C181.001 149.911 180.643 150.775 180.006 151.412C179.37 152.048 178.506 152.406 177.605 152.406H30.4182C29.5176 152.406 28.6538 152.048 28.017 151.412C27.3801 150.775 27.0223 149.911 27.0223 149.01V144.042C27.018 143.961 27.0303 143.88 27.0584 143.804C27.0865 143.728 27.1299 143.658 27.1858 143.599C27.2417 143.54 27.309 143.494 27.3836 143.462C27.4582 143.43 27.5386 143.413 27.6197 143.413Z" fill="#1E7836"/>
<rect x="50.2461" y="54.6206" width="73.0051" height="24.3398" rx="2.34667" fill="#FFB762"/>
<rect x="50.2461" y="82.4873" width="73.0051" height="24.3398" rx="2.34667" fill="#FFB762"/>
<rect x="50.2461" y="110.764" width="73.0051" height="24.3398" rx="2.34667" fill="#FFB762"/>
<rect x="134.946" y="129.936" width="73.0051" height="24.3398" rx="2.34667" transform="rotate(-90 134.946 129.936)" fill="#CCEFDB"/>
<path d="M167.571 160.054L182.304 156.83L167.383 153.57L163.805 140.826L160.228 153.57L145.307 156.83L160.028 160.054L163.805 173.481L167.571 160.054Z" fill="#FD9558"/>
<path d="M52.9684 43.6806L71.548 39.5774L52.7382 35.4335L48.2152 19.2373L43.7057 35.4335L24.8823 39.5774L43.4619 43.6806L48.2152 60.7299L52.9684 43.6806Z" fill="#FD9558"/>
<path d="M26.3585 129.099L32.0655 127.652L26.2799 126.19L24.8806 120.499L23.4971 126.19L17.6958 127.652L23.4185 129.099L24.8806 135.105L26.3585 129.099Z" fill="#00C65E"/>
</g>
<defs>
<clipPath id="clip0_1913_58788">
<rect width="200" height="200" fill="white"/>
</clipPath>
</defs>
</svg>
