<svg width="200" height="200" viewBox="0 0 200 200" fill="none" xmlns="http://www.w3.org/2000/svg">
<g clip-path="url(#clip0_885_4576)">
<path opacity="0.7" d="M108.395 192.496C125.77 204.858 150.787 196.604 157.396 176.33L192.072 69.9447C199.886 45.9752 176.824 23.9196 152.381 31.9839L26.5291 73.5049C2.08581 81.5692 -3.32325 113.018 17.2194 127.632L108.395 192.496Z" fill="#FFE9D0"/>
<path d="M122.081 22.0432H72.6186C67.2597 22.0432 62.9155 26.4201 62.9155 31.8193V147.166C62.9155 152.565 67.2597 156.942 72.6186 156.942H122.081C127.44 156.942 131.784 152.565 131.784 147.166V31.8193C131.784 26.4201 127.44 22.0432 122.081 22.0432Z" fill="white"/>
<path d="M122.08 22.0435H115.692C115.692 22.0435 112.248 120.379 94.8213 156.942H122.08C127.439 156.942 131.783 152.566 131.783 147.166V31.8196C131.783 26.4204 127.439 22.0435 122.08 22.0435Z" fill="#CCEFDB"/>
<path d="M81.749 22.0439H111.593V24.7314C111.59 25.2146 111.492 25.6925 111.305 26.1372C111.117 26.582 110.844 26.9846 110.5 27.3218C110.156 27.6589 109.75 27.9237 109.303 28.1009C108.857 28.2781 108.38 28.364 107.901 28.3536H85.3635C84.4049 28.3536 83.4855 27.97 82.8077 27.287C82.1298 26.6041 81.749 25.6778 81.749 24.7119V22.0439Z" fill="#00C65E"/>
<path d="M107.9 29.8731H85.3626C84.0092 29.8731 82.7113 29.3314 81.7543 28.3673C80.7974 27.4031 80.2598 26.0954 80.2598 24.7319V20.5254H113.119V24.7319C113.119 25.417 112.983 26.0952 112.72 26.7267C112.456 27.3582 112.07 27.9302 111.583 28.4092C111.097 28.8882 110.521 29.2644 109.888 29.5158C109.256 29.7672 108.58 29.8887 107.9 29.8731ZM83.2557 23.5439V24.7319C83.2557 25.2948 83.4777 25.8348 83.8728 26.2328C84.2679 26.6309 84.8038 26.8546 85.3626 26.8546H107.9C108.459 26.8546 108.995 26.6309 109.39 26.2328C109.785 25.8348 110.007 25.2948 110.007 24.7319V23.5439H83.2557Z" fill="#00C65E"/>
<path d="M122.084 158.891H72.6217C69.5459 158.891 66.5961 157.66 64.4212 155.469C62.2463 153.278 61.0244 150.305 61.0244 147.207V31.8209C61.0244 28.7219 62.2463 25.7499 64.4212 23.5586C66.5961 21.3673 69.5459 20.1362 72.6217 20.1362H122.084C125.16 20.1362 128.11 21.3673 130.285 23.5586C132.46 25.7499 133.682 28.7219 133.682 31.8209V147.168C133.687 148.705 133.39 150.229 132.81 151.651C132.229 153.073 131.376 154.366 130.299 155.455C129.221 156.544 127.941 157.408 126.531 157.998C125.122 158.588 123.611 158.891 122.084 158.891ZM72.6217 23.9922C70.5712 23.9922 68.6046 24.8129 67.1547 26.2737C65.7048 27.7346 64.8902 29.7159 64.8902 31.7819V147.168C64.8902 149.234 65.7048 151.215 67.1547 152.676C68.6046 154.137 70.5712 154.957 72.6217 154.957H122.084C124.135 154.957 126.101 154.137 127.551 152.676C129.001 151.215 129.816 149.234 129.816 147.168V31.8209C129.816 29.7549 129.001 27.7735 127.551 26.3127C126.101 24.8518 124.135 24.0311 122.084 24.0311L72.6217 23.9922Z" fill="#00C65E"/>
<rect x="69.7871" y="126.91" width="55.1255" height="20.0711" rx="1.83502" fill="#FFB762"/>
<rect x="69.7871" y="100.552" width="55.1255" height="15.8281" rx="1.83502" fill="#FFB762"/>
<rect x="69.7905" y="42.5088" width="55.1255" height="3.11915" rx="1.55957" fill="#FFB762"/>
<rect x="69.7905" y="57.019" width="55.1255" height="3.11915" rx="1.55957" fill="#FFB762"/>
<rect x="69.7905" y="71.5308" width="34.3632" height="3.11915" rx="1.55957" fill="#FFB762"/>
<rect x="69.7905" y="86.0413" width="27.601" height="3.11915" rx="1.55957" fill="#FFB762"/>
<path d="M37.2833 136.553L55.1936 132.208L37.045 127.815L32.6906 110.666L28.3362 127.815L10.1875 132.208L28.1137 136.553L32.6906 154.619L37.2833 136.553Z" fill="#FFB762"/>
<path d="M164.252 73.0718L177.11 69.9521L164.081 66.7989L160.955 54.4871L157.829 66.7989L144.8 69.9521L157.658 73.0718L160.955 86.041L164.252 73.0718Z" fill="#00C65E"/>
<path d="M155.05 180.228C170.424 180.896 183.477 167.875 184.204 151.144C184.931 134.413 173.057 120.308 157.683 119.64C142.309 118.972 129.256 131.993 128.529 148.724C127.802 165.455 139.676 179.56 155.05 180.228Z" fill="white"/>
<path d="M157.122 180.318C172.496 180.986 185.549 167.964 186.276 151.234C187.003 134.503 175.129 120.398 159.755 119.73C144.381 119.062 131.329 132.083 130.601 148.814C129.874 165.545 141.748 179.65 157.122 180.318Z" fill="#00C65E"/>
<path d="M165.754 175.933C175.511 176.357 183.918 165.264 184.531 151.157C185.144 137.05 177.732 125.271 167.974 124.847C158.217 124.423 149.81 135.515 149.197 149.622C148.584 163.729 155.997 175.508 165.754 175.933Z" fill="#1E7836"/>
<path d="M162.299 125.931C154.244 129.522 149.658 139.03 149.206 149.435C148.754 159.839 152.594 170.174 160.194 174.378C168.119 170.662 173.781 160.961 174.234 150.523C174.688 140.084 169.776 130.299 162.299 125.931Z" fill="#FFE9D0"/>
<path d="M141.079 160.989L133.446 160.658C132.288 160.679 131.13 160.554 130.008 160.287C129.076 159.99 128.239 159.498 127.57 158.853C126.901 158.208 126.42 157.43 126.17 156.588C125.896 154.636 125.903 152.665 126.192 150.72L126.546 142.581C126.647 140.265 127.26 137.766 130.253 137.231C130.505 137.242 131.499 137.132 131.306 137.123C131.112 137.115 131.306 137.123 131.306 137.123L137.795 137.405C140.933 137.542 143.994 137.675 145.576 140.576C146.548 142.324 146.078 144.658 145.995 146.565L145.606 155.522C145.661 156.524 145.499 157.525 145.128 158.47C144.729 159.284 144.045 159.963 143.175 160.41C142.305 160.857 141.293 161.047 140.285 160.955C136.972 160.811 135.88 165.387 139.778 165.454C142.671 165.484 145.459 164.554 147.586 162.851C149.714 161.148 151.025 158.796 151.26 156.263C151.363 153.896 151.467 151.512 151.57 149.128C151.674 146.744 151.889 144.484 151.873 142.163C151.86 139.847 150.84 137.614 149.023 135.92C147.206 134.226 144.728 133.201 142.099 133.054C139.154 132.926 136.287 132.802 133.265 132.67C130.52 132.461 127.79 133.114 125.562 134.514C123.333 135.913 121.75 137.968 121.094 140.313C120.682 142.714 120.512 145.144 120.584 147.576C120.47 150.199 120.356 152.821 120.243 155.426C120.123 157.814 121.073 160.159 122.889 161.957C124.705 163.756 127.242 164.864 129.956 165.044C132.998 165.176 136.039 165.309 139.08 165.441C139.836 165.516 140.597 165.379 141.253 165.049C141.909 164.719 142.427 164.212 142.731 163.603C142.861 163.34 142.919 163.054 142.902 162.766C142.885 162.479 142.794 162.198 142.634 161.945C142.474 161.692 142.251 161.475 141.981 161.309C141.711 161.143 141.403 161.034 141.079 160.989Z" fill="white"/>
<path d="M144.999 133.282L134.732 132.836C129.629 132.614 125.334 136.071 125.139 140.557L124.444 156.547C124.249 161.033 128.228 164.849 133.331 165.071L143.598 165.517C148.702 165.739 152.997 162.282 153.192 157.796L153.887 141.806C154.081 137.32 150.102 133.504 144.999 133.282Z" fill="#1E7836"/>
<path d="M142.29 135.331L133.108 134.932C128.646 134.738 124.892 137.76 124.721 141.682L124.125 155.407C123.954 159.328 127.433 162.665 131.894 162.859L141.076 163.258C145.538 163.452 149.293 160.43 149.463 156.508L150.06 142.783C150.23 138.861 146.751 135.525 142.29 135.331Z" fill="white"/>
<path d="M141.676 137.455L132.494 137.056C128.033 136.862 124.278 139.884 124.107 143.806L123.511 157.531C123.34 161.452 126.819 164.789 131.28 164.983L140.463 165.382C144.924 165.576 148.679 162.554 148.849 158.632L149.446 144.907C149.616 140.985 146.138 137.649 141.676 137.455Z" fill="white"/>
<path d="M142.048 161.031L134.473 160.702C133.308 160.723 132.144 160.598 131.015 160.33C130.095 160.012 129.275 159.501 128.627 158.842C127.979 158.184 127.523 157.397 127.298 156.552C126.956 154.605 126.904 152.629 127.146 150.676L127.496 142.622C127.596 140.306 128.19 137.807 131.203 137.255C131.455 137.266 132.449 137.156 132.255 137.164C132.061 137.173 132.255 137.164 132.255 137.164L138.764 137.447C141.883 137.583 144.963 137.717 146.526 140.6C147.518 142.349 147.047 144.7 146.964 146.607L146.575 155.564C146.62 156.56 146.459 157.553 146.098 158.495C145.698 159.314 145.012 159.997 144.138 160.446C143.264 160.896 142.247 161.088 141.234 160.996C137.941 160.853 136.85 165.412 140.728 165.495C143.624 165.529 146.416 164.602 148.548 162.898C150.679 161.195 151.994 158.841 152.229 156.304C152.333 153.92 152.436 151.536 152.539 149.169C152.642 146.802 152.857 144.526 152.842 142.205C152.829 139.889 151.809 137.656 149.992 135.962C148.174 134.268 145.697 133.243 143.068 133.096C140.123 132.968 137.256 132.843 134.215 132.711C131.472 132.506 128.747 133.162 126.523 134.561C124.298 135.96 122.718 138.013 122.063 140.355C121.641 142.755 121.471 145.186 121.553 147.618C121.44 150.223 121.326 152.846 121.212 155.468C121.082 157.854 122.027 160.199 123.841 161.996C125.656 163.793 128.194 164.897 130.906 165.068C133.948 165.2 136.989 165.333 140.031 165.465C140.789 165.544 141.554 165.409 142.215 165.079C142.875 164.748 143.395 164.24 143.701 163.628C143.827 163.366 143.882 163.081 143.863 162.796C143.845 162.51 143.752 162.232 143.592 161.981C143.433 161.731 143.211 161.515 142.943 161.35C142.675 161.186 142.369 161.076 142.048 161.031Z" fill="#00C65E"/>
<path d="M152.504 145.041C152.468 145.858 152.43 146.744 151.895 146.993L151.159 146.961C150.461 146.931 149.919 146.02 149.966 144.93C150.013 143.841 150.633 142.98 151.33 143.011L151.97 143.038C152.388 143.64 152.575 144.343 152.504 145.041Z" fill="#1E7836"/>
<path d="M151.803 146.988C152.499 147.018 153.101 146.158 153.148 145.067C153.196 143.976 152.67 143.067 151.975 143.037C151.28 143.007 150.677 143.867 150.63 144.957C150.583 146.048 151.108 146.957 151.803 146.988Z" fill="white"/>
</g>
<defs>
<clipPath id="clip0_885_4576">
<rect width="200" height="200" fill="white"/>
</clipPath>
</defs>
</svg>
