<svg width="200" height="200" viewBox="0 0 200 200" fill="none" xmlns="http://www.w3.org/2000/svg">
<g clip-path="url(#clip0_1919_60107)">
<path opacity="0.7" d="M108.395 192.496C125.77 204.858 150.787 196.604 157.396 176.33L192.072 69.9447C199.886 45.9752 176.824 23.9196 152.381 31.9839L26.5291 73.5049C2.08581 81.5692 -3.32325 113.018 17.2194 127.632L108.395 192.496Z" fill="#FAEAD9"/>
<path d="M107.635 144.76H41V28.2192C41.0124 26.7202 41.5754 25.278 42.5819 24.167C43.1532 23.4931 43.8633 22.9505 44.6637 22.5765C45.4641 22.2025 46.3358 22.0059 47.2192 22H101.394C102.21 22 103.017 22.161 103.771 22.4738C104.524 22.7866 105.208 23.2451 105.784 23.8229C106.36 24.4007 106.816 25.0865 107.126 25.8409C107.436 26.5953 107.594 27.4035 107.591 28.2192L107.635 144.76Z" fill="#00C65E"/>
<path d="M107.635 144.759H41V28.2184C41 24.7728 46.1358 82.0463 58.5092 99.4472C63.4865 106.272 70.1457 111.692 77.8387 115.179C87.2654 119.21 97.4264 121.239 107.678 121.139L107.635 144.759Z" fill="#08A636"/>
<path d="M87.4385 36.8215V50.6469H96.5181V36.8215H87.4385Z" fill="white"/>
<path d="M61.6729 36.822H52.5933V50.6474H61.6729V36.822Z" fill="white"/>
<path d="M70.0161 36.8215V50.6469H79.0958V36.8215H70.0161Z" fill="white"/>
<path d="M87.4385 60.0745V74.0082H96.5181V60.0745H87.4385Z" fill="white"/>
<path d="M61.6729 60.0745H52.5933V73.8998H61.6729V60.0745Z" fill="white"/>
<path d="M70.0161 60.0745V74.0082H79.0958V60.0745H70.0161Z" fill="white"/>
<path d="M87.439 83.325V97.1503H96.5186V83.325H87.439Z" fill="white"/>
<path d="M70.0161 83.3259V97.1513H79.0958V83.3259H70.0161Z" fill="white"/>
<path d="M87.4385 111.106V124.932H96.5181V111.106H87.4385Z" fill="white"/>
<path d="M91.3175 78.0601H145.21C146.492 78.0601 147.721 78.5692 148.627 79.4754C149.534 80.3817 150.043 81.6108 150.043 82.8924V156.158H86.5068V82.8924C86.5068 81.6146 87.013 80.3887 87.9145 79.4831C88.8161 78.5774 90.0397 78.0658 91.3175 78.0601Z" fill="white"/>
<path d="M97.5802 82.5017H146.034C147.228 82.5074 148.371 82.9841 149.215 83.8281C150.059 84.6722 150.536 85.8153 150.541 87.009V157.999H93.0078V87.009C93.0106 86.4124 93.1313 85.8222 93.3629 85.2724C93.5945 84.7226 93.9324 84.224 94.3573 83.8051C94.7822 83.3863 95.2856 83.0555 95.8387 82.8319C96.3918 82.6082 96.9836 82.496 97.5802 82.5017Z" fill="#FFB762"/>
<path d="M130.41 96.3267V106.1H137.496V96.3267H130.41Z" fill="white"/>
<path d="M113.204 96.3267H106.118V106.1H113.204V96.3267Z" fill="white"/>
<path d="M118.275 96.3267V106.1H125.339V96.3267H118.275Z" fill="white"/>
<path d="M130.41 112.753V122.526H137.496V112.753H130.41Z" fill="white"/>
<path d="M113.204 112.753H106.118V122.526H113.204V112.753Z" fill="white"/>
<path d="M118.275 112.753V122.526H125.339V112.753H118.275Z" fill="white"/>
<path d="M130.41 129.179V139.017H137.496V129.179H130.41Z" fill="white"/>
<path d="M113.204 129.178H106.118V138.952H113.204V129.178Z" fill="white"/>
<path d="M118.275 129.179V139.017H125.339V129.179H118.275Z" fill="white"/>
<path d="M144.56 43.0848L159.729 39.5526L144.56 35.9771L140.681 22L137.062 35.9771L121.894 39.5526L137.062 43.0848L140.681 57.8203L144.56 43.0848Z" fill="#F89358"/>
<path d="M123.064 65.34L132.014 63.173L123.042 61.006L120.875 52.7715L118.708 61.006L109.715 63.173L118.6 65.34L120.767 74.0079L123.064 65.34Z" fill="#00C65E"/>
<path d="M29.3486 176.569L38.2983 174.402L29.327 172.235L27.16 164L24.993 172.235L16 174.402L24.8846 176.569L27.0516 185.236L29.3486 176.569Z" fill="white"/>
</g>
<defs>
<clipPath id="clip0_1919_60107">
<rect width="200" height="200" fill="white"/>
</clipPath>
</defs>
</svg>
