<svg width="200" height="200" viewBox="0 0 200 200" fill="none" xmlns="http://www.w3.org/2000/svg">
<g clip-path="url(#clip0_1913_58843)">
<path opacity="0.7" d="M108.395 192.496C125.77 204.858 150.787 196.604 157.396 176.33L192.072 69.9447C199.886 45.9752 176.824 23.9196 152.381 31.9839L26.5291 73.5049C2.08581 81.5692 -3.32325 113.018 17.2194 127.632L108.395 192.496Z" fill="#CCEFDB"/>
<path d="M119.465 13.3584H73.0791C65.401 13.3584 59.1768 19.2675 59.1768 26.5567V155.563C59.1768 162.852 65.401 168.761 73.0791 168.761H119.465C127.143 168.761 133.367 162.852 133.367 155.563V26.5567C133.367 19.2675 127.143 13.3584 119.465 13.3584Z" fill="#00C65E"/>
<path d="M133.26 26.5567C133.26 19.2675 127.036 13.3584 119.358 13.3584C117.376 40.7584 114.279 71.0659 104.896 108.765C95.512 146.464 78.6351 168.761 86.3131 168.761H119.358C127.036 168.761 133.26 162.852 133.26 155.563V26.5567Z" fill="#08A636"/>
<path d="M133.36 64.1621H59.1699V67.5824H133.36V64.1621Z" fill="#FAFAFA"/>
<path d="M67.5044 80.6993V95.5085H72.4358V80.6993H67.5044Z" fill="#FAFAFA"/>
<path d="M67.4839 35.0541V49.8633H72.4152V35.0541H67.4839Z" fill="#FAFAFA"/>
<path d="M158.32 180.083C158.32 180.083 153.004 184.859 131.79 184.859C110.576 184.859 105.277 180.083 105.277 180.083L108.547 138.482C109.503 126.318 118.961 116.415 131.807 116.415C144.636 116.415 154.195 126.429 155.05 138.482L158.32 180.083Z" fill="white"/>
<path d="M168.324 147.666C168.324 155.499 156.149 165.1 156.149 165.1C148.938 165.1 142.229 153.557 142.229 147.666C142.229 141.776 146.925 136.904 154.841 136.522C162.421 136.06 168.324 139.69 168.324 147.666Z" fill="white"/>
<path d="M131.811 119.202C133.914 119.202 135.619 117.583 135.619 115.587C135.619 113.591 133.914 111.972 131.811 111.972C129.709 111.972 128.004 113.591 128.004 115.587C128.004 117.583 129.709 119.202 131.811 119.202Z" fill="white"/>
<path d="M121.716 170.846L110.731 175.161L92.1333 138.702L101.575 138.734L121.716 170.846Z" fill="white"/>
<path d="M164.091 182.581C164.091 182.581 158.759 187.357 137.561 187.357C116.364 187.357 111.048 182.581 111.048 182.581L114.402 140.98C115.341 128.801 124.799 118.898 137.645 118.898C150.491 118.898 160.05 128.912 160.905 140.98L164.091 182.581Z" fill="#FFB762"/>
<path d="M162.574 169.462H161.853C153.166 169.462 145.988 156.725 145.988 150.166C145.988 142.938 151.925 137.573 160.444 137.111C162.526 136.904 164.63 137.102 166.628 137.694C168.626 138.285 170.476 139.257 172.066 140.55C173.375 141.801 174.4 143.295 175.075 144.938C175.75 146.582 176.061 148.34 175.99 150.102C175.99 158.7 163.647 168.554 163.11 168.968L162.574 169.462ZM161.685 140.805H160.746C154.306 141.171 149.98 144.912 149.98 150.15C149.98 155.388 155.832 164.925 161.283 165.673C164.787 162.759 172.149 155.515 172.149 150.15C172.234 148.883 172.037 147.614 171.572 146.423C171.107 145.233 170.384 144.149 169.45 143.24C167.282 141.52 164.505 140.649 161.685 140.805Z" fill="#FFB762"/>
<path d="M137.517 121.701C139.62 121.701 141.325 120.083 141.325 118.086C141.325 116.09 139.62 114.471 137.517 114.471C135.414 114.471 133.709 116.09 133.709 118.086C133.709 120.083 135.414 121.701 137.517 121.701Z" fill="#FFB762"/>
<path d="M127.42 173.347L116.435 177.662L97.854 141.187L107.296 141.235L127.42 173.347Z" fill="#FFB762"/>
<path d="M115.074 136.436L160.161 136.488C159.943 135.229 159.002 133.068 159.002 133.068L116.167 133.069C115.882 134.135 115.25 135.362 115.074 136.436Z" fill="white"/>
<path d="M140.819 127.097H133.254L134.562 125.632H139.51L140.819 127.097Z" fill="white"/>
<path d="M155.597 169.175L153.031 173.123L152.042 147.602L154.792 148.78L155.597 169.175Z" fill="white"/>
<path d="M55.5253 161.085L72.4337 157.106L55.3047 153.067L51.2076 137.329L47.0948 153.067L29.9658 157.106L46.8742 161.085L51.2076 177.661L55.5253 161.085Z" fill="#FD9558"/>
<path d="M38.0647 117.907L48.008 115.559L37.9228 113.18L35.5119 103.92L33.0851 113.18L23 115.559L32.9591 117.907L35.5119 127.661L38.0647 117.907Z" fill="#FD9558"/>
</g>
<defs>
<clipPath id="clip0_1913_58843">
<rect width="200" height="200" fill="white"/>
</clipPath>
</defs>
</svg>
