<svg width="200" height="200" viewBox="0 0 200 200" fill="none" xmlns="http://www.w3.org/2000/svg">
<g clip-path="url(#clip0_1919_59922)">
<path opacity="0.7" d="M108.395 192.496C125.77 204.858 150.787 196.604 157.396 176.33L192.072 69.9447C199.886 45.9752 176.824 23.9196 152.381 31.9839L26.5291 73.5049C2.08581 81.5692 -3.32325 113.018 17.2194 127.632L108.395 192.496Z" fill="#CCEFDB"/>
<path d="M102.201 99.4927C99.6517 99.4927 97.1271 98.9899 94.772 98.013C92.4169 97.0362 90.2776 95.6044 88.4765 93.7998C86.6754 91.9951 85.2478 89.853 84.2756 87.496C83.3034 85.1389 82.8056 82.6133 82.8106 80.0637V53.7818C82.9688 48.7471 85.0801 43.9714 88.6975 40.466C92.3149 36.9605 97.1545 35.0002 102.192 35.0002C107.229 35.0002 112.069 36.9605 115.686 40.466C119.303 43.9714 121.415 48.7471 121.573 53.7818V80.0637C121.578 82.6117 121.081 85.1358 120.11 87.4915C119.139 89.8473 117.713 91.9886 115.914 93.793C114.115 95.5974 111.978 97.0295 109.625 98.0075C107.272 98.9855 104.749 99.4902 102.201 99.4927ZM102.201 43.9812C99.6003 43.9812 97.1055 45.0131 95.2645 46.8506C93.4234 48.688 92.3866 51.1808 92.3815 53.7818V80.0637C92.4932 82.5905 93.5755 84.9769 95.4031 86.7255C97.2307 88.4741 99.6624 89.45 102.192 89.45C104.721 89.45 107.153 88.4741 108.98 86.7255C110.808 84.9769 111.89 82.5905 112.002 80.0637V53.7818C111.997 51.1841 110.963 48.6942 109.126 46.8573C107.289 45.0204 104.799 43.9862 102.201 43.9812Z" fill="#F89358"/>
<path d="M142.131 58.0312H57.8686C49.1046 58.0312 42 65.1359 42 73.8999V130.043C42 138.807 49.1046 145.912 57.8686 145.912H142.131C150.895 145.912 158 138.807 158 130.043V73.8999C158 65.1359 150.895 58.0312 142.131 58.0312Z" fill="#F89358"/>
<path d="M144.256 67.1433H62.5392C54.9592 67.1433 48.8145 73.2881 48.8145 80.8681V123.267C48.8145 130.847 54.9592 136.992 62.5392 136.992H144.256C151.836 136.992 157.981 130.847 157.981 123.267V80.8681C157.981 73.2881 151.836 67.1433 144.256 67.1433Z" fill="#FFB762"/>
<path d="M147.166 58.0312H59.6296C53.6566 58.0312 48.8145 62.8734 48.8145 68.8464V90.6299C48.8145 96.603 53.6566 101.445 59.6296 101.445H147.166C153.139 101.445 157.981 96.603 157.981 90.6299V68.8464C157.981 62.8734 153.139 58.0312 147.166 58.0312Z" fill="#F89358"/>
<path d="M103.58 85.8826H103.446C100.179 85.8826 97.5308 88.5307 97.5308 91.7974V103.417C97.5308 106.683 100.179 109.331 103.446 109.331H103.58C106.846 109.331 109.494 106.683 109.494 103.417V91.7974C109.494 88.5307 106.846 85.8826 103.58 85.8826Z" fill="white"/>
<path d="M61.3463 158.855L77 155.287L61.3463 151.473L57.6565 137L53.6537 151.383L38 154.995L53.5195 158.743L57.4106 174L61.3463 158.855Z" fill="#00C65E"/>
<path d="M167.838 34.2851L179 31.7639L167.71 29.1166L165.08 19.0002L162.29 29.1481L151 31.7008L162.129 34.2851L164.92 45.0002L167.838 34.2851Z" fill="#FFB762"/>
</g>
<defs>
<clipPath id="clip0_1919_59922">
<rect width="200" height="200" fill="white"/>
</clipPath>
</defs>
</svg>
