<svg width="25" height="25" viewBox="0 0 25 25" fill="none" xmlns="http://www.w3.org/2000/svg">
<path d="M21.0154 6.96523H4.01543C3.82596 6.96258 3.63786 6.99761 3.46205 7.06829C3.28624 7.13896 3.12623 7.24388 2.99131 7.37693C2.8564 7.50998 2.74927 7.66852 2.67616 7.84333C2.60305 8.01814 2.56541 8.20574 2.56543 8.39523V20.9252C2.56543 21.3045 2.71609 21.6682 2.98427 21.9364C3.25244 22.2046 3.61617 22.3552 3.99543 22.3552H20.9954C21.373 22.3526 21.7341 22.2008 22.0001 21.9329C22.2662 21.665 22.4154 21.3028 22.4154 20.9252V8.39523C22.4155 8.02111 22.269 7.66186 22.0073 7.39453C21.7455 7.12719 21.3895 6.97308 21.0154 6.96523Z" fill="white" stroke="#363A45" stroke-width="0.7" stroke-miterlimit="10"/>
<path d="M9.67579 7.28504V5.45504C9.67373 4.70613 9.96859 3.98695 10.4958 3.45504C10.7583 3.19354 11.0705 2.98718 11.414 2.84808C11.7575 2.70897 12.1253 2.63994 12.4958 2.64504C12.8612 2.64372 13.2233 2.71472 13.5612 2.85396C13.8991 2.9932 14.2061 3.19792 14.4645 3.45633C14.7229 3.71474 14.9276 4.02174 15.0669 4.35962C15.2061 4.6975 15.2771 5.05959 15.2758 5.42504V7.28504" stroke="#00C65E" stroke-width="2" stroke-miterlimit="10"/>
<path d="M20.9056 6.96509H4.10556C3.90163 6.96507 3.69973 7.00556 3.51157 7.0842C3.32341 7.16284 3.15275 7.27806 3.00948 7.42319C2.86622 7.56832 2.7532 7.74046 2.67699 7.92961C2.60079 8.11877 2.56291 8.32118 2.56556 8.52509V11.9351C2.56556 12.3435 2.72781 12.7352 3.01662 13.024C3.30542 13.3128 3.69713 13.4751 4.10556 13.4751H20.9056C21.1073 13.4751 21.3071 13.4352 21.4934 13.3577C21.6797 13.2802 21.8488 13.1666 21.991 13.0234C22.1332 12.8803 22.2457 12.7104 22.322 12.5237C22.3983 12.3369 22.4369 12.1368 22.4356 11.9351V8.52509C22.4396 8.32166 22.4029 8.11947 22.3278 7.93037C22.2527 7.74126 22.1407 7.56903 21.9982 7.42377C21.8557 7.2785 21.6857 7.16311 21.4981 7.08435C21.3105 7.0056 21.109 6.96505 20.9056 6.96509Z" fill="white" stroke="#363A45" stroke-width="0.7" stroke-miterlimit="10"/>
<path d="M13.6759 11.4143H11.3359V15.5243H13.6759V11.4143Z" fill="#00C65E"/>
</svg>
