<svg width="200" height="200" viewBox="0 0 200 200" fill="none" xmlns="http://www.w3.org/2000/svg">
<g clip-path="url(#clip0_1919_58980)">
<path opacity="0.7" d="M108.395 192.496C125.77 204.858 150.787 196.604 157.396 176.33L192.072 69.9447C199.886 45.9752 176.824 23.9196 152.381 31.9839L26.5291 73.5049C2.08581 81.5692 -3.32325 113.018 17.2194 127.632L108.395 192.496Z" fill="#FAEAD9"/>
<path d="M187.4 59.1417L200.165 56.1219L187.211 53.1685L184.053 41.4219L181.006 53.1928L168.058 56.2477L180.846 59.1674L184.171 71.5313L187.4 59.1417Z" fill="white"/>
<path d="M29.0797 157.937L38.9967 155.463L28.9325 153.03L26.4746 143.407L24.1021 153.048L14.0474 155.56L23.9934 157.957L26.5714 168.096L29.0797 157.937Z" fill="#FFB762"/>
<path d="M113.842 42.1267L97.1854 51.106L79.7651 42.1267V31.3584H113.842V42.1267Z" fill="#00C65E"/>
<path d="M96.6624 151.06H132.354V75.1262L141.386 80.3366L154.325 58.1922L129.593 40.2161C128.238 39.4172 126.779 38.5835 126.119 38.3056C121.618 36.6139 116.873 35.6636 112.068 35.4919C111.495 38.8614 108.16 51.1233 96.645 51.1233C85.1299 51.1233 81.7952 38.9656 81.2221 35.4919C76.423 35.6655 71.6837 36.6157 67.1886 38.3056C66.5633 38.5835 65.1044 39.4172 63.7149 40.2161L39 58.1922L51.9393 80.4061L60.9708 75.1956V151.06H96.6624Z" fill="#00C65E"/>
<path d="M79.7106 31.3584L96.8009 51.106L87.5611 59.547L75.6465 36.0825L79.7106 31.3584Z" fill="#CCEFDB"/>
<path d="M113.907 31.3584L96.7988 51.106L106.056 59.547L117.971 36.0825L113.907 31.3584Z" fill="#CCEFDB"/>
<path d="M99.9095 50.6008H93.6743V74.0653H99.9095V50.6008Z" fill="#CCEFDB"/>
<path d="M57.1671 77.3853L51.9393 80.4074L39 58.1934L43.9847 54.5635L57.1671 77.3853Z" fill="#CCEFDB"/>
<path d="M136.156 77.3853L141.384 80.4074L154.323 58.1934L149.338 54.5635L136.156 77.3853Z" fill="#CCEFDB"/>
<path d="M132.372 146.334H60.9712V151.041H132.372V146.334Z" fill="#CCEFDB"/>
<rect x="79.7134" y="31.3584" width="34.1816" height="5.85831" fill="#CCEFDB"/>
<path d="M111.605 133.519C111.605 133.519 110.487 133.886 110.328 135.295C110.09 137.41 109.109 148.592 109.544 151.072C109.852 152.796 121.902 158.414 145.358 159.255C163.182 159.886 177.124 159.157 181.705 155.332C182.4 153.666 182.425 151.796 181.775 150.113C181.125 148.429 179.85 147.061 178.217 146.294C175.022 144.416 175.61 145.481 167.007 142.791C158.404 140.101 141.071 132.268 138.633 132.002C137.315 132.002 134.777 132.148 132.013 134.605C130.059 136.342 128.323 137.427 126.369 137.644C124.415 137.861 121.375 137.21 119.204 135.039C116.382 132.217 111.605 133.519 111.605 133.519Z" fill="#F89358"/>
<path d="M179.316 158.527C175.575 161.833 166.859 165 148.573 165C117.845 165 109.508 161.035 109.508 161.035C108.303 158.302 109.62 151.072 109.62 151.072C109.62 151.072 120.297 158.513 145.883 159.255C177.046 160.152 181.74 155.332 181.74 155.332C181.119 156.527 180.299 157.607 179.316 158.527Z" fill="#00C65E"/>
<path d="M112.29 133.502C112.29 133.502 110.567 133.179 110.328 135.295C110.09 137.411 109.109 148.592 109.544 151.073C109.852 152.796 121.902 158.415 145.358 159.256C163.182 159.886 177.124 159.158 181.705 155.332C182.4 153.666 182.425 151.797 181.775 150.113C181.125 148.429 179.85 147.062 178.217 146.295C175.022 144.417 175.61 145.482 167.007 142.792C158.404 140.101 141.071 132.268 138.633 132.002C137.315 132.002 135.55 131.82 133.224 134.721C130.898 137.621 129.875 140.325 126.54 140.592C123.738 140.872 119.198 140.452 117.418 137.691C114.532 133.277 112.29 133.502 112.29 133.502Z" fill="#FFB762"/>
<path d="M109.816 141.656C113.722 142.588 117.318 144.521 120.25 147.265C123.181 150.01 125.346 153.471 126.532 157.308C126.532 157.308 110.559 154.225 109.62 151.072C109.13 149.377 109.816 141.656 109.816 141.656Z" fill="#F89358"/>
<path d="M154.01 159.451C156.503 156.384 159.322 153.598 162.417 151.142C165.906 148.928 173.109 150.918 179.694 147.274C180.843 148.171 181.705 149.384 182.174 150.763C182.486 152.28 182.34 153.856 181.754 155.289C181.18 156.326 175.351 159.843 154.01 159.451Z" fill="#F89358"/>
<path d="M155.79 154.42C144.86 154.42 123.562 149.726 122.427 149.488L121.166 148.087C121.46 148.087 151.992 154.659 160.007 153.075L158.704 154.308C157.74 154.458 156.762 154.496 155.79 154.42Z" fill="#F89358"/>
<path d="M131.577 150.119L129.938 149.825C130.26 149.615 138.205 144.361 140.404 143.071C141.301 142.539 143.207 142.763 146.696 143.24C152.175 143.968 160.119 145.299 164.673 142.021L166.074 142.497C161.072 146.112 152.147 145.397 146.458 144.627C144.174 144.318 141.595 143.968 141.049 144.276C138.933 145.552 131.647 150.063 131.577 150.119Z" fill="#F89358"/>
<path d="M146.29 153.454L145.911 152.88L145.197 153.034C145.099 152.529 145.393 152.361 145.981 151.997C152.595 148.06 154.977 145.663 155.79 144.36L156.981 145.117C155.58 147.205 152.175 149.923 146.668 153.202L146.29 153.454Z" fill="#F89358"/>
<path d="M138.569 152.32L137.686 151.311C141.394 149.091 144.88 146.52 148.097 143.633L149.064 144.642C145.841 147.558 142.324 150.131 138.569 152.32Z" fill="#F89358"/>
<path d="M139.802 136.471L141.035 135.028L142.52 133.276" stroke="#00C65E" stroke-width="1.8579" stroke-miterlimit="10" stroke-linecap="round"/>
<path d="M144.23 138.238L145.477 136.795L146.948 135.057" stroke="#00C65E" stroke-width="1.8579" stroke-miterlimit="10" stroke-linecap="round"/>
<path d="M148.671 140.017L149.918 138.546L151.39 136.822" stroke="#00C65E" stroke-width="1.8579" stroke-miterlimit="10" stroke-linecap="round"/>
<path d="M153.099 141.783L155.817 138.588" stroke="#00C65E" stroke-width="1.8579" stroke-miterlimit="10" stroke-linecap="round"/>
</g>
<defs>
<clipPath id="clip0_1919_58980">
<rect width="200" height="200" fill="white"/>
</clipPath>
</defs>
</svg>
